<?xml version="1.0" encoding="UTF-8" standalone="no"?>
<!DOCTYPE svg PUBLIC "-//W3C//DTD SVG 1.1//EN"
 "http://www.w3.org/Graphics/SVG/1.1/DTD/svg11.dtd">
<!-- Generated by graphviz version 2.44.0 (20200408.0750)
 -->
<!-- Title: dependency&#45;cruiser output Pages: 1 -->
<svg width="209pt" height="199pt"
 viewBox="0.00 0.00 208.51 199.00" xmlns="http://www.w3.org/2000/svg" xmlns:xlink="http://www.w3.org/1999/xlink">
<g id="graph0" class="graph" transform="scale(1 1) rotate(0) translate(4 195)">
<title>dependency&#45;cruiser output</title>
<polygon fill="white" stroke="transparent" points="-4,4 -4,-195 204.51,-195 204.51,4 -4,4"/>
<g id="clust1" class="cluster">
<title>cluster_src</title>
<path fill="#ffffff" stroke="black" stroke-width="2" d="M20,-8C20,-8 180.51,-8 180.51,-8 186.51,-8 192.51,-14 192.51,-20 192.51,-20 192.51,-171 192.51,-171 192.51,-177 186.51,-183 180.51,-183 180.51,-183 20,-183 20,-183 14,-183 8,-177 8,-171 8,-171 8,-20 8,-20 8,-14 14,-8 20,-8"/>
<text text-anchor="middle" x="100.25" y="-170.9" font-family="Helvetica,sans-Serif" font-weight="bold" font-size="9.00">src</text>
</g>
<g id="clust2" class="cluster">
<title>cluster_src/init</title>
<path fill="#ffffff" stroke="black" stroke-width="2" d="M30.25,-103C30.25,-103 76.25,-103 76.25,-103 82.25,-103 88.25,-109 88.25,-115 88.25,-115 88.25,-144 88.25,-144 88.25,-150 82.25,-156 76.25,-156 76.25,-156 30.25,-156 30.25,-156 24.25,-156 18.25,-150 18.25,-144 18.25,-144 18.25,-115 18.25,-115 18.25,-109 24.25,-103 30.25,-103"/>
<text text-anchor="middle" x="53.25" y="-143.9" font-family="Helvetica,sans-Serif" font-weight="bold" font-size="9.00">init</text>
</g>
<g id="clust3" class="cluster">
<title>cluster_src/listeners</title>
<path fill="#ffffff" stroke="black" stroke-width="2" d="M28,-42C28,-42 78.5,-42 78.5,-42 84.5,-42 90.5,-48 90.5,-54 90.5,-54 90.5,-83 90.5,-83 90.5,-89 84.5,-95 78.5,-95 78.5,-95 28,-95 28,-95 22,-95 16,-89 16,-83 16,-83 16,-54 16,-54 16,-48 22,-42 28,-42"/>
<text text-anchor="middle" x="53.25" y="-82.9" font-family="Helvetica,sans-Serif" font-weight="bold" font-size="9.00">listeners</text>
</g>
<g id="clust4" class="cluster">
<title>cluster_src/procedures</title>
<path fill="#ffffff" stroke="black" stroke-width="2" d="M110.5,-103C110.5,-103 172.51,-103 172.51,-103 178.51,-103 184.51,-109 184.51,-115 184.51,-115 184.51,-144 184.51,-144 184.51,-150 178.51,-156 172.51,-156 172.51,-156 110.5,-156 110.5,-156 104.5,-156 98.5,-150 98.5,-144 98.5,-144 98.5,-115 98.5,-115 98.5,-109 104.5,-103 110.5,-103"/>
<text text-anchor="middle" x="141.5" y="-143.9" font-family="Helvetica,sans-Serif" font-weight="bold" font-size="9.00">procedures</text>
</g>
<!-- src/data.js -->
<g id="node1" class="node">
<title>src/data.js</title>
<g id="a_node1"><a xlink:href="../src/data.js" xlink:title="data.js">
<path fill="#ccffcc" stroke="black" d="M74.05,-34.3C74.05,-34.3 32.45,-34.3 32.45,-34.3 29.35,-34.3 26.25,-31.2 26.25,-28.1 26.25,-28.1 26.25,-21.9 26.25,-21.9 26.25,-18.8 29.35,-15.7 32.45,-15.7 32.45,-15.7 74.05,-15.7 74.05,-15.7 77.15,-15.7 80.25,-18.8 80.25,-21.9 80.25,-21.9 80.25,-28.1 80.25,-28.1 80.25,-31.2 77.15,-34.3 74.05,-34.3"/>
<text text-anchor="middle" x="53.25" y="-22.3" font-family="Helvetica,sans-Serif" font-size="9.00">data.js</text>
</a>
</g>
</g>
<!-- src/init/index.js -->
<g id="node2" class="node">
<title>src/init/index.js</title>
<g id="a_node2"><a xlink:href="../src/init/index.js" xlink:title="index.js">
<path fill="#ffffcc" stroke="black" d="M74.05,-129.3C74.05,-129.3 32.45,-129.3 32.45,-129.3 29.35,-129.3 26.25,-126.2 26.25,-123.1 26.25,-123.1 26.25,-116.9 26.25,-116.9 26.25,-113.8 29.35,-110.7 32.45,-110.7 32.45,-110.7 74.05,-110.7 74.05,-110.7 77.15,-110.7 80.25,-113.8 80.25,-116.9 80.25,-116.9 80.25,-123.1 80.25,-123.1 80.25,-126.2 77.15,-129.3 74.05,-129.3"/>
<text text-anchor="middle" x="53.25" y="-117.3" font-family="Helvetica,sans-Serif" font-size="9.00">index.js</text>
</a>
</g>
</g>
<!-- src/procedures/procedures.js -->
<g id="node3" class="node">
<title>src/procedures/procedures.js</title>
<g id="a_node3"><a xlink:href="../src/procedures/procedures.js" xlink:title="procedures.js">
<path fill="#ffffcc" stroke="black" d="M170.31,-129.3C170.31,-129.3 112.7,-129.3 112.7,-129.3 109.59,-129.3 106.49,-126.2 106.49,-123.1 106.49,-123.1 106.49,-116.9 106.49,-116.9 106.49,-113.8 109.59,-110.7 112.7,-110.7 112.7,-110.7 170.31,-110.7 170.31,-110.7 173.41,-110.7 176.51,-113.8 176.51,-116.9 176.51,-116.9 176.51,-123.1 176.51,-123.1 176.51,-126.2 173.41,-129.3 170.31,-129.3"/>
<text text-anchor="middle" x="141.5" y="-117.3" font-family="Helvetica,sans-Serif" font-size="9.00">procedures.js</text>
</a>
</g>
</g>
<!-- src/init/index.js&#45;&gt;src/procedures/procedures.js -->
<g id="edge1" class="edge">
<title>src/init/index.js&#45;&gt;src/procedures/procedures.js</title>
<path fill="none" stroke="#000000" stroke-width="2" stroke-opacity="0.200000" d="M80.6,-120C86.82,-120 93.59,-120 100.27,-120"/>
<polygon fill="#000000" fill-opacity="0.200000" stroke="#000000" stroke-width="2" stroke-opacity="0.200000" points="100.36,-122.1 106.36,-120 100.36,-117.9 100.36,-122.1"/>
</g>
<!-- src/listeners/listeners.js -->
<g id="node4" class="node">
<title>src/listeners/listeners.js</title>
<g id="a_node4"><a xlink:href="../src/listeners/listeners.js" xlink:title="listeners.js">
<path fill="#ccffcc" stroke="black" d="M76.55,-68.3C76.55,-68.3 29.95,-68.3 29.95,-68.3 26.85,-68.3 23.75,-65.2 23.75,-62.1 23.75,-62.1 23.75,-55.9 23.75,-55.9 23.75,-52.8 26.85,-49.7 29.95,-49.7 29.95,-49.7 76.55,-49.7 76.55,-49.7 79.65,-49.7 82.75,-52.8 82.75,-55.9 82.75,-55.9 82.75,-62.1 82.75,-62.1 82.75,-65.2 79.65,-68.3 76.55,-68.3"/>
<text text-anchor="middle" x="53.25" y="-56.3" font-family="Helvetica,sans-Serif" font-size="9.00">listeners.js</text>
</a>
</g>
</g>
</g>
</svg>
